<svg xmlns="http://www.w3.org/2000/svg" viewBox="0 0 1100 780" width="100%" height="auto" style="max-width:1100px;display:block;">
  <defs>
    <filter id="modalShadow" x="-10%" y="-10%" width="120%" height="120%">
      <feGaussianBlur stdDeviation="24" />
      <feOffset dx="0" dy="24" result="offsetblur"/>
      <feComponentTransfer><feFuncA type="linear" slope="0.5"/></feComponentTransfer>
      <feMerge>
        <feMergeNode/>
        <feMergeNode in="SourceGraphic"/>
      </feMerge>
    </filter>
    <linearGradient id="initialsGrad" x1="0%" y1="0%" x2="100%" y2="100%">
      <stop offset="0%" stop-color="#5DCAA5" stop-opacity="0.35"/>
      <stop offset="100%" stop-color="#5DCAA5" stop-opacity="0.10"/>
    </linearGradient>
  </defs>
  <rect x="0" y="0" width="1100" height="780" fill="#040408" opacity="0.78"/>
  <g filter="url(#modalShadow)">
    <rect x="40" y="30" width="1020" height="720" rx="16" fill="#0d0d0d" stroke="#1e1e1e" stroke-width="1"/>
  </g>
  <text x="1040" y="62" font-family="DM Sans, sans-serif" font-size="30" fill="#555" text-anchor="middle">×</text>
  <g transform="translate(72, 56)">
    <circle cx="40" cy="40" r="40" fill="url(#initialsGrad)" stroke="rgba(93,202,165,0.4)" stroke-width="1.5"/>
    <text x="40" y="52" text-anchor="middle" font-family="Syne, sans-serif" font-size="26" font-weight="800" fill="#5DCAA5">CA</text>
    <text x="100" y="28" font-family="Syne, sans-serif" font-size="22" font-weight="700" fill="#f5f3ef">Candidato A</text>
    <text x="100" y="50" font-family="DM Sans, sans-serif" font-size="13" fill="#828282">HR Specialist · Lisboa, Portugal</text>
    <g transform="translate(100, 60)">
      <rect x="0" y="0" width="110" height="22" rx="11" fill="rgba(93,202,165,0.10)" stroke="rgba(93,202,165,0.22)" stroke-width="1"/>
      <circle cx="11" cy="11" r="3" fill="#5DCAA5"/>
      <text x="20" y="15" font-family="DM Sans, sans-serif" font-size="11" font-weight="500" fill="#5DCAA5">Em análise</text>
    </g>
  </g>
  <line x1="60" y1="160" x2="1040" y2="160" stroke="#1e1e1e" stroke-width="1"/>
  <g transform="translate(72, 186)">
    <rect x="0" y="0" width="640" height="108" rx="10" fill="rgba(93,202,165,0.06)" stroke="rgba(93,202,165,0.2)" stroke-width="1"/>
    <text x="22" y="36" font-family="DM Sans" font-size="22">✅</text>
    <text x="56" y="32" font-family="DM Sans, sans-serif" font-size="14" font-weight="600" fill="#5DCAA5">IA recomenda: Avançar para teste</text>
    <text x="56" y="50" font-family="DM Sans, sans-serif" font-size="11" fill="#555">Pontuação de compatibilidade: 80%</text>
    <text x="22" y="76" font-family="DM Sans, sans-serif" font-size="12" fill="#bbb">Candidato com forte experiência em recrutamento e gestão de talento. Demonstra excelente</text>
    <text x="22" y="92" font-family="DM Sans, sans-serif" font-size="12" fill="#bbb">capacidade comunicativa, pensamento estratégico e alinhamento cultural com a empresa.</text>
  </g>
  <g transform="translate(72, 314)">
    <text x="0" y="0" font-family="DM Sans, sans-serif" font-size="11" font-weight="500" fill="#5DCAA5">✓ Liderança · Comunicação · Resolução de conflitos · Empatia · Gestão de equipas</text>
  </g>
  <g transform="translate(72, 346)">
    <text x="0" y="0" font-family="DM Sans, sans-serif" font-size="10" font-weight="500" fill="#555" letter-spacing="0.5">PROCESSO</text>
  </g>
  <g transform="translate(72, 366)">
    <rect x="0" y="0" width="206" height="80" rx="10" fill="#0d0d0d" stroke="rgba(93,202,165,0.3)" stroke-width="1"/>
    <text x="16" y="22" font-family="DM Sans, sans-serif" font-size="10" font-weight="500" fill="#555" letter-spacing="0.4">FASE 1 (CV)</text>
    <text x="16" y="46" font-family="DM Sans, sans-serif" font-size="14" font-weight="600" fill="#5DCAA5">✓ Aprovado</text>
    <text x="16" y="66" font-family="DM Sans, sans-serif" font-size="11" fill="#828282">Score AI: 80%</text>
  </g>
  <g transform="translate(290, 366)">
    <rect x="0" y="0" width="206" height="80" rx="10" fill="#0d0d0d" stroke="rgba(239,184,74,0.3)" stroke-width="1"/>
    <text x="16" y="22" font-family="DM Sans, sans-serif" font-size="10" font-weight="500" fill="#555" letter-spacing="0.4">FASE 2 (TESTE)</text>
    <text x="16" y="46" font-family="DM Sans, sans-serif" font-size="14" font-weight="600" fill="#efb84a">⏱ Em curso</text>
    <text x="16" y="66" font-family="DM Sans, sans-serif" font-size="11" fill="#828282">12/20 questões</text>
  </g>
  <g transform="translate(508, 366)">
    <rect x="0" y="0" width="204" height="80" rx="10" fill="#0d0d0d" stroke="#1e1e1e" stroke-width="1"/>
    <text x="16" y="22" font-family="DM Sans, sans-serif" font-size="10" font-weight="500" fill="#555" letter-spacing="0.4">FASE 3 (ENTREVISTA)</text>
    <text x="16" y="46" font-family="DM Sans, sans-serif" font-size="14" font-weight="600" fill="#666">— Pendente</text>
    <text x="16" y="66" font-family="DM Sans, sans-serif" font-size="11" fill="#444">A aguardar Fase 2</text>
  </g>
  <g transform="translate(72, 470)">
    <text x="0" y="0" font-family="DM Sans, sans-serif" font-size="10" font-weight="500" fill="#555" letter-spacing="0.5">ANÁLISE IA · BREAKDOWN</text>
  </g>
  <g transform="translate(72, 490)">
    <rect x="0" y="0" width="640" height="174" rx="10" fill="#0d0d0d" stroke="#1e1e1e" stroke-width="1"/>
    <text x="22" y="32" font-family="DM Sans, sans-serif" font-size="12" fill="#aaa">Experiência relevante</text>
    <text x="618" y="32" font-family="DM Sans, sans-serif" font-size="12" font-weight="600" fill="#5DCAA5" text-anchor="end">85%</text>
    <rect x="22" y="40" width="596" height="5" rx="2.5" fill="#1c1c1c"/>
    <rect x="22" y="40" width="507" height="5" rx="2.5" fill="#5DCAA5"/>
    <text x="22" y="72" font-family="DM Sans, sans-serif" font-size="12" fill="#aaa">Formação académica</text>
    <text x="618" y="72" font-family="DM Sans, sans-serif" font-size="12" font-weight="600" fill="#5DCAA5" text-anchor="end">90%</text>
    <rect x="22" y="80" width="596" height="5" rx="2.5" fill="#1c1c1c"/>
    <rect x="22" y="80" width="536" height="5" rx="2.5" fill="#5DCAA5"/>
    <text x="22" y="112" font-family="DM Sans, sans-serif" font-size="12" fill="#aaa">Competências comportamentais</text>
    <text x="618" y="112" font-family="DM Sans, sans-serif" font-size="12" font-weight="600" fill="#efb84a" text-anchor="end">72%</text>
    <rect x="22" y="120" width="596" height="5" rx="2.5" fill="#1c1c1c"/>
    <rect x="22" y="120" width="429" height="5" rx="2.5" fill="#efb84a"/>
    <text x="22" y="152" font-family="DM Sans, sans-serif" font-size="12" fill="#aaa">Alinhamento cultural</text>
    <text x="618" y="152" font-family="DM Sans, sans-serif" font-size="12" font-weight="600" fill="#5DCAA5" text-anchor="end">88%</text>
    <rect x="22" y="160" width="596" height="5" rx="2.5" fill="#1c1c1c"/>
    <rect x="22" y="160" width="524" height="5" rx="2.5" fill="#5DCAA5"/>
  </g>
  <g transform="translate(740, 186)">
    <rect x="0" y="0" width="296" height="146" rx="10" fill="#0d0d0d" stroke="#1e1e1e" stroke-width="1"/>
    <text x="20" y="26" font-family="DM Sans, sans-serif" font-size="10" font-weight="500" fill="#555" letter-spacing="0.5">DETALHES</text>
    <text x="20" y="50" font-family="DM Sans, sans-serif" font-size="11" fill="#666">✉ Email</text>
    <text x="20" y="68" font-family="DM Sans, sans-serif" font-size="12" fill="#ddd">candidato@email.com</text>
    <text x="20" y="92" font-family="DM Sans, sans-serif" font-size="11" fill="#666">📱 Telefone</text>
    <text x="20" y="110" font-family="DM Sans, sans-serif" font-size="12" fill="#ddd">+351 9XX XXX XXX</text>
    <text x="20" y="132" font-family="DM Sans, sans-serif" font-size="11" fill="#666">📅 Submetido em 21/05/2026</text>
  </g>
  <g transform="translate(740, 344)">
    <rect x="0" y="0" width="296" height="110" rx="10" fill="#0d0d0d" stroke="#1e1e1e" stroke-width="1"/>
    <text x="20" y="26" font-family="DM Sans, sans-serif" font-size="10" font-weight="500" fill="#555" letter-spacing="0.5">FORMAÇÃO</text>
    <text x="20" y="52" font-family="DM Sans, sans-serif" font-size="14" font-weight="600" fill="#ddd">Mestrado</text>
    <text x="20" y="72" font-family="DM Sans, sans-serif" font-size="12" fill="#888">Gestão de RH</text>
    <text x="20" y="90" font-family="DM Sans, sans-serif" font-size="11" fill="#666">ISCTE Business School · 2021</text>
  </g>
  <g transform="translate(740, 466)">
    <rect x="0" y="0" width="296" height="198" rx="10" fill="#0d0d0d" stroke="#1e1e1e" stroke-width="1"/>
    <text x="20" y="26" font-family="DM Sans, sans-serif" font-size="10" font-weight="500" fill="#555" letter-spacing="0.5">EXPERIÊNCIA</text>
    <text x="20" y="52" font-family="DM Sans, sans-serif" font-size="14" font-weight="600" fill="#ddd">HR Specialist</text>
    <text x="20" y="70" font-family="DM Sans, sans-serif" font-size="11" fill="#888">Sisqual · 2023 — Presente</text>
    <line x1="20" y1="90" x2="276" y2="90" stroke="#1e1e1e" stroke-width="1"/>
    <text x="20" y="114" font-family="DM Sans, sans-serif" font-size="14" font-weight="600" fill="#ddd">HR Trainee</text>
    <text x="20" y="132" font-family="DM Sans, sans-serif" font-size="11" fill="#888">Meridian · 2021 — 2023</text>
    <line x1="20" y1="152" x2="276" y2="152" stroke="#1e1e1e" stroke-width="1"/>
    <g transform="translate(20, 170)">
      <text x="0" y="14" font-family="DM Sans, sans-serif" font-size="18" font-weight="700" fill="#0a66c2">in</text>
      <text x="26" y="14" font-family="DM Sans, sans-serif" font-size="12" fill="#888">linkedin.com/in/candidato-a</text>
    </g>
  </g>
  <line x1="60" y1="690" x2="1040" y2="690" stroke="#1e1e1e" stroke-width="1"/>
  <g transform="translate(72, 708)">
    <rect x="0" y="0" width="640" height="38" rx="8" fill="#5DCAA5"/>
    <text x="320" y="24" text-anchor="middle" font-family="DM Sans, sans-serif" font-size="13" font-weight="600" fill="#0a0a0a">✓ Aprovar candidato</text>
    <rect x="654" y="0" width="220" height="38" rx="8" fill="rgba(93,202,165,0.08)" stroke="rgba(93,202,165,0.3)" stroke-width="1"/>
    <text x="764" y="24" text-anchor="middle" font-family="DM Sans, sans-serif" font-size="13" font-weight="500" fill="#5DCAA5">Atribuir teste</text>
    <rect x="888" y="0" width="76" height="38" rx="8" fill="transparent" stroke="#2a2a2a" stroke-width="1"/>
    <text x="926" y="24" text-anchor="middle" font-family="DM Sans, sans-serif" font-size="13" font-weight="500" fill="#888">Fechar</text>
  </g>
</svg>
